<svg width="470" height="341" viewBox="0 0 470 341" fill="none" xmlns="http://www.w3.org/2000/svg">
<rect x="0.5" y="1" width="117" height="297" stroke="#ECECEC"/>
<rect x="117.5" y="1" width="117" height="297" stroke="#ECECEC"/>
<rect x="234.5" y="1" width="117" height="297" stroke="#ECECEC"/>
<rect x="351.5" y="1" width="117" height="297" stroke="#ECECEC"/>
<rect x="0.5" y="76" width="469" height="74.25" stroke="#ECECEC"/>
<rect x="0.5" y="151" width="469" height="74.25" stroke="#ECECEC"/>
<g opacity="0.24" clip-path="url(#clip0_5_5371)">
<path d="M451.964 96.7596C460.982 96.7596 460.982 56.5254 470 56.5254V340.5H-161.254V313.737C-151.484 313.737 -152.236 328.538 -143.218 328.538C-134.2 328.538 -134.2 286.507 -125.182 286.507C-116.164 286.507 -117.667 299.44 -107.146 299.44C-96.6252 299.44 -99.6312 323.652 -89.1104 323.652C-78.5894 323.652 -80.8439 314.456 -71.0745 314.456C-61.3051 314.456 -63.1838 270.629 -53.0387 270.629C-42.8936 270.629 -45.5238 284.927 -35.0029 284.927C-24.482 284.927 -26.3607 304.613 -16.9671 304.613C-7.57339 304.613 -9.07639 239.232 1.06876 239.232C11.2139 239.232 10.0867 261.864 19.1046 261.864C28.1225 261.864 26.6195 230.179 37.1404 230.179C47.6613 230.179 45.4068 250.44 55.1762 250.44C64.9456 250.44 63.4426 167.601 73.212 167.601C82.9814 167.601 81.1027 190.663 91.2478 190.663C101.393 190.663 98.7628 205.895 109.284 205.895C119.805 205.895 117.174 166.379 127.319 166.379C137.465 166.379 134.834 185.778 145.355 185.778C155.876 185.778 153.997 153.806 163.391 153.806C172.785 153.806 171.658 100.352 181.427 100.352C191.196 100.352 189.693 189.801 199.463 189.801C209.232 189.801 208.105 127.151 217.499 127.151C226.892 127.151 225.013 154.596 235.534 154.596C246.055 154.596 243.801 179.24 253.57 179.24C263.34 179.24 262.212 138.431 271.606 138.431C281 138.431 280.248 177.228 289.642 177.228C299.035 177.228 297.908 159.985 307.678 159.985C317.447 159.985 315.944 124.421 325.713 124.421C335.483 124.421 333.98 138.646 343.749 138.646C353.519 138.646 352.767 86.7011 361.785 86.7011C370.803 86.7011 369.3 157.901 379.821 157.901C390.342 157.901 387.712 109.548 397.857 109.548C408.002 109.548 406.499 129.45 415.893 129.45C425.286 129.45 424.535 79.8756 433.928 79.8756C443.322 79.8756 442.946 96.7596 451.964 96.7596Z" fill="url(#paint0_linear_5_5371)"/>
</g>
<g clip-path="url(#clip1_5_5371)">
<path d="M470 56.5254C460.982 56.5254 460.982 96.7596 451.964 96.7596C442.946 96.7596 443.322 79.8756 433.928 79.8756C424.535 79.8756 425.286 129.45 415.893 129.45C406.499 129.45 408.002 109.548 397.857 109.548C387.712 109.548 390.342 157.901 379.821 157.901C369.3 157.901 370.803 86.7011 361.785 86.7011C352.767 86.7011 353.519 138.646 343.749 138.646C333.98 138.646 335.483 124.421 325.713 124.421C315.944 124.421 317.447 159.985 307.678 159.985C297.908 159.985 299.035 177.228 289.642 177.228C280.248 177.228 281 138.431 271.606 138.431C262.212 138.431 263.34 179.24 253.57 179.24C243.801 179.24 246.055 154.596 235.534 154.596C225.013 154.596 226.892 127.151 217.499 127.151C208.105 127.151 209.232 189.801 199.463 189.801C189.693 189.801 191.196 100.352 181.427 100.352C171.658 100.352 172.785 153.806 163.391 153.806C153.997 153.806 155.876 185.778 145.355 185.778C134.834 185.778 137.465 166.379 127.319 166.379C117.174 166.379 119.805 205.895 109.284 205.895C98.7628 205.895 101.393 190.663 91.2478 190.663C81.1027 190.663 82.9814 167.601 73.212 167.601C63.4426 167.601 64.9456 250.44 55.1762 250.44C45.4068 250.44 47.6613 230.179 37.1404 230.179C26.6195 230.179 28.1225 261.864 19.1046 261.864C10.0867 261.864 11.2139 239.232 1.06876 239.232C-9.07639 239.232 -7.57342 304.613 -16.9671 304.613C-26.3607 304.613 -24.482 284.927 -35.0029 284.927C-45.5238 284.927 -42.8935 270.629 -53.0387 270.629C-63.1838 270.629 -61.3051 314.456 -71.0745 314.456C-80.8439 314.456 -78.5895 323.652 -89.1104 323.652C-99.6312 323.652 -96.6252 299.44 -107.146 299.44C-117.667 299.44 -116.164 286.507 -125.182 286.507C-134.2 286.507 -134.2 328.538 -143.218 328.538C-152.236 328.538 -151.484 313.737 -161.254 313.737" stroke="#128C76" stroke-width="2"/>
</g>
<rect x="181" y="77.491" width="6" height="6" rx="0.751492" transform="rotate(45 181 77.491)" fill="#F56B8D"/>
<rect x="139" y="42" width="83" height="40" rx="2.25448" fill="#F56B8D"/>
<path d="M161.89 58.968H160.654C160.318 58.968 160.066 58.872 159.898 58.68C159.73 58.496 159.646 58.264 159.646 57.984V57.132C159.166 57.084 158.73 56.956 158.338 56.748C157.946 56.54 157.614 56.256 157.342 55.896C157.07 55.528 156.858 55.088 156.706 54.576C156.562 54.056 156.49 53.468 156.49 52.812C156.49 52.108 156.574 51.488 156.742 50.952C156.91 50.416 157.146 49.964 157.45 49.596C157.762 49.228 158.134 48.952 158.566 48.768C159.006 48.576 159.498 48.48 160.042 48.48C160.578 48.48 161.066 48.576 161.506 48.768C161.946 48.952 162.318 49.228 162.622 49.596C162.934 49.964 163.174 50.416 163.342 50.952C163.51 51.488 163.594 52.108 163.594 52.812C163.594 54.1 163.326 55.108 162.79 55.836C162.254 56.556 161.526 56.98 160.606 57.108V58.128H161.89V58.968ZM160.042 56.244C160.402 56.244 160.734 56.18 161.038 56.052C161.342 55.924 161.602 55.74 161.818 55.5C162.042 55.26 162.214 54.972 162.334 54.636C162.454 54.3 162.514 53.924 162.514 53.508V52.116C162.514 51.7 162.454 51.324 162.334 50.988C162.214 50.652 162.042 50.364 161.818 50.124C161.602 49.884 161.342 49.7 161.038 49.572C160.734 49.444 160.402 49.38 160.042 49.38C159.682 49.38 159.35 49.444 159.046 49.572C158.742 49.7 158.478 49.884 158.254 50.124C158.038 50.364 157.87 50.652 157.75 50.988C157.63 51.324 157.57 51.7 157.57 52.116V53.508C157.57 53.924 157.63 54.3 157.75 54.636C157.87 54.972 158.038 55.26 158.254 55.5C158.478 55.74 158.742 55.924 159.046 56.052C159.35 56.18 159.682 56.244 160.042 56.244ZM170.986 57H165.49V55.968L168.226 53.448C168.618 53.088 168.946 52.708 169.21 52.308C169.474 51.9 169.606 51.492 169.606 51.084V50.94C169.606 50.476 169.478 50.1 169.222 49.812C168.966 49.524 168.578 49.38 168.058 49.38C167.802 49.38 167.578 49.416 167.386 49.488C167.194 49.56 167.026 49.66 166.882 49.788C166.746 49.916 166.63 50.068 166.534 50.244C166.446 50.412 166.374 50.596 166.318 50.796L165.418 50.448C165.498 50.2 165.606 49.96 165.742 49.728C165.886 49.488 166.062 49.276 166.27 49.092C166.486 48.908 166.742 48.76 167.038 48.648C167.342 48.536 167.698 48.48 168.106 48.48C168.514 48.48 168.878 48.54 169.198 48.66C169.518 48.78 169.786 48.948 170.002 49.164C170.218 49.38 170.382 49.636 170.494 49.932C170.614 50.228 170.674 50.556 170.674 50.916C170.674 51.244 170.626 51.548 170.53 51.828C170.442 52.108 170.318 52.376 170.158 52.632C169.998 52.88 169.802 53.124 169.57 53.364C169.346 53.604 169.102 53.844 168.838 54.084L166.582 56.112H170.986V57ZM181.619 57H176.123V55.968L178.859 53.448C179.251 53.088 179.579 52.708 179.843 52.308C180.107 51.9 180.239 51.492 180.239 51.084V50.94C180.239 50.476 180.111 50.1 179.855 49.812C179.599 49.524 179.211 49.38 178.691 49.38C178.435 49.38 178.211 49.416 178.019 49.488C177.827 49.56 177.659 49.66 177.515 49.788C177.379 49.916 177.263 50.068 177.167 50.244C177.079 50.412 177.007 50.596 176.951 50.796L176.051 50.448C176.131 50.2 176.239 49.96 176.375 49.728C176.519 49.488 176.695 49.276 176.903 49.092C177.119 48.908 177.375 48.76 177.671 48.648C177.975 48.536 178.331 48.48 178.739 48.48C179.147 48.48 179.511 48.54 179.831 48.66C180.151 48.78 180.419 48.948 180.635 49.164C180.851 49.38 181.015 49.636 181.127 49.932C181.247 50.228 181.307 50.556 181.307 50.916C181.307 51.244 181.259 51.548 181.163 51.828C181.075 52.108 180.951 52.376 180.791 52.632C180.631 52.88 180.435 53.124 180.203 53.364C179.979 53.604 179.735 53.844 179.471 54.084L177.215 56.112H181.619V57ZM186.319 57.144C185.319 57.144 184.587 56.764 184.123 56.004C183.667 55.244 183.439 54.18 183.439 52.812C183.439 51.444 183.667 50.38 184.123 49.62C184.587 48.86 185.319 48.48 186.319 48.48C187.319 48.48 188.047 48.86 188.503 49.62C188.967 50.38 189.199 51.444 189.199 52.812C189.199 54.18 188.967 55.244 188.503 56.004C188.047 56.764 187.319 57.144 186.319 57.144ZM186.319 56.268C186.647 56.268 186.927 56.2 187.159 56.064C187.391 55.928 187.579 55.736 187.723 55.488C187.867 55.24 187.971 54.948 188.035 54.612C188.107 54.276 188.143 53.904 188.143 53.496V52.128C188.143 51.72 188.107 51.348 188.035 51.012C187.971 50.676 187.867 50.384 187.723 50.136C187.579 49.888 187.391 49.696 187.159 49.56C186.927 49.424 186.647 49.356 186.319 49.356C185.991 49.356 185.711 49.424 185.479 49.56C185.247 49.696 185.059 49.888 184.915 50.136C184.771 50.384 184.663 50.676 184.591 51.012C184.527 51.348 184.495 51.72 184.495 52.128V53.496C184.495 53.904 184.527 54.276 184.591 54.612C184.663 54.948 184.771 55.24 184.915 55.488C185.059 55.736 185.247 55.928 185.479 56.064C185.711 56.2 185.991 56.268 186.319 56.268ZM191.271 57V56.112H193.611V49.368H193.527L191.415 51.336L190.827 50.7L193.047 48.624H194.619V56.112H196.779V57H191.271ZM199.81 57L203.014 49.488H199.438V51.048H198.538V48.624H204.034V49.512L200.89 57H199.81ZM150.198 73.984V73C149.59 72.96 149.074 72.812 148.65 72.556C148.234 72.292 147.878 71.964 147.582 71.572L148.29 70.936C148.546 71.28 148.826 71.556 149.13 71.764C149.442 71.964 149.802 72.092 150.21 72.148V69.064C149.386 68.88 148.782 68.612 148.398 68.26C148.022 67.9 147.834 67.408 147.834 66.784C147.834 66.464 147.89 66.18 148.002 65.932C148.122 65.676 148.286 65.456 148.494 65.272C148.702 65.088 148.95 64.944 149.238 64.84C149.526 64.728 149.846 64.656 150.198 64.624V63.64H150.942V64.612C151.486 64.66 151.954 64.8 152.346 65.032C152.746 65.256 153.09 65.568 153.378 65.968L152.646 66.52C152.446 66.24 152.206 66.012 151.926 65.836C151.646 65.652 151.314 65.532 150.93 65.476V68.284L151.038 68.308C151.87 68.492 152.474 68.764 152.85 69.124C153.234 69.476 153.426 69.968 153.426 70.6C153.426 71.288 153.202 71.844 152.754 72.268C152.314 72.684 151.71 72.928 150.942 73V73.984H150.198ZM152.478 70.66C152.478 70.252 152.358 69.94 152.118 69.724C151.886 69.508 151.49 69.332 150.93 69.196V72.148C151.41 72.084 151.786 71.924 152.058 71.668C152.338 71.404 152.478 71.068 152.478 70.66ZM148.782 66.712C148.782 67.12 148.898 67.428 149.13 67.636C149.37 67.836 149.73 68 150.21 68.128V65.476C149.778 65.532 149.43 65.664 149.166 65.872C148.91 66.08 148.782 66.36 148.782 66.712ZM160.406 65.512H156.734L156.494 68.704H156.578C156.778 68.424 157.002 68.2 157.25 68.032C157.506 67.864 157.854 67.78 158.294 67.78C158.654 67.78 158.986 67.84 159.29 67.96C159.594 68.08 159.858 68.252 160.082 68.476C160.306 68.692 160.478 68.96 160.598 69.28C160.726 69.6 160.79 69.964 160.79 70.372C160.79 70.78 160.726 71.156 160.598 71.5C160.47 71.836 160.282 72.128 160.034 72.376C159.794 72.616 159.498 72.804 159.146 72.94C158.802 73.076 158.41 73.144 157.97 73.144C157.618 73.144 157.306 73.104 157.034 73.024C156.77 72.944 156.534 72.836 156.326 72.7C156.118 72.564 155.934 72.412 155.774 72.244C155.622 72.076 155.482 71.9 155.354 71.716L156.11 71.14C156.214 71.308 156.322 71.46 156.434 71.596C156.554 71.732 156.682 71.848 156.818 71.944C156.962 72.04 157.126 72.116 157.31 72.172C157.494 72.22 157.714 72.244 157.97 72.244C158.546 72.244 158.982 72.092 159.278 71.788C159.574 71.484 159.722 71.056 159.722 70.504V70.384C159.722 69.832 159.574 69.404 159.278 69.1C158.982 68.796 158.546 68.644 157.97 68.644C157.586 68.644 157.282 68.716 157.058 68.86C156.842 68.996 156.646 69.16 156.47 69.352L155.618 69.232L155.918 64.624H160.406V65.512ZM163.558 71.596C163.814 71.596 163.998 71.664 164.11 71.8C164.23 71.928 164.29 72.096 164.29 72.304V72.472C164.29 72.8 164.194 73.16 164.002 73.552C163.81 73.952 163.542 74.3 163.198 74.596H162.394C162.634 74.34 162.826 74.096 162.97 73.864C163.122 73.64 163.23 73.388 163.294 73.108C163.134 73.068 163.014 72.992 162.934 72.88C162.862 72.768 162.826 72.632 162.826 72.472V72.304C162.826 72.096 162.882 71.928 162.994 71.8C163.114 71.664 163.302 71.596 163.558 71.596ZM169.996 73V71.356H165.952V70.468L169.456 64.624H170.956V70.516H172.168V71.356H170.956V73H169.996ZM166.9 70.516H169.996V65.404H169.936L166.9 70.516ZM179.388 67.696C179.388 68.32 179.296 68.908 179.112 69.46C178.928 70.004 178.688 70.504 178.392 70.96C178.104 71.408 177.784 71.808 177.432 72.16C177.08 72.504 176.736 72.784 176.4 73H175.104C175.552 72.672 175.952 72.352 176.304 72.04C176.656 71.728 176.964 71.404 177.228 71.068C177.492 70.724 177.716 70.36 177.9 69.976C178.084 69.584 178.232 69.144 178.344 68.656L178.284 68.632C178.084 68.976 177.824 69.264 177.504 69.496C177.192 69.72 176.78 69.832 176.268 69.832C175.908 69.832 175.576 69.772 175.272 69.652C174.968 69.532 174.708 69.36 174.492 69.136C174.276 68.912 174.104 68.644 173.976 68.332C173.856 68.012 173.796 67.652 173.796 67.252C173.796 66.844 173.86 66.472 173.988 66.136C174.124 65.792 174.312 65.5 174.552 65.26C174.8 65.012 175.092 64.82 175.428 64.684C175.772 64.548 176.156 64.48 176.58 64.48C177.012 64.48 177.4 64.556 177.744 64.708C178.096 64.852 178.392 65.064 178.632 65.344C178.88 65.616 179.068 65.952 179.196 66.352C179.324 66.752 179.388 67.2 179.388 67.696ZM176.592 68.98C177.144 68.98 177.572 68.828 177.876 68.524C178.188 68.22 178.344 67.784 178.344 67.216V67.12C178.344 66.552 178.188 66.116 177.876 65.812C177.572 65.508 177.144 65.356 176.592 65.356C176.04 65.356 175.608 65.508 175.296 65.812C174.992 66.116 174.84 66.552 174.84 67.12V67.216C174.84 67.784 174.992 68.22 175.296 68.524C175.608 68.828 176.04 68.98 176.592 68.98ZM186.884 73H181.388V71.968L184.124 69.448C184.516 69.088 184.844 68.708 185.108 68.308C185.372 67.9 185.504 67.492 185.504 67.084V66.94C185.504 66.476 185.376 66.1 185.12 65.812C184.864 65.524 184.476 65.38 183.956 65.38C183.7 65.38 183.476 65.416 183.284 65.488C183.092 65.56 182.924 65.66 182.78 65.788C182.644 65.916 182.528 66.068 182.432 66.244C182.344 66.412 182.272 66.596 182.216 66.796L181.316 66.448C181.396 66.2 181.504 65.96 181.64 65.728C181.784 65.488 181.96 65.276 182.168 65.092C182.384 64.908 182.64 64.76 182.936 64.648C183.24 64.536 183.596 64.48 184.004 64.48C184.412 64.48 184.776 64.54 185.096 64.66C185.416 64.78 185.684 64.948 185.9 65.164C186.116 65.38 186.28 65.636 186.392 65.932C186.512 66.228 186.572 66.556 186.572 66.916C186.572 67.244 186.524 67.548 186.428 67.828C186.34 68.108 186.216 68.376 186.056 68.632C185.896 68.88 185.7 69.124 185.468 69.364C185.244 69.604 185 69.844 184.736 70.084L182.48 72.112H186.884V73ZM189.616 71.596C189.872 71.596 190.056 71.664 190.168 71.8C190.288 71.928 190.348 72.096 190.348 72.304V72.472C190.348 72.8 190.252 73.16 190.06 73.552C189.868 73.952 189.6 74.3 189.256 74.596H188.452C188.692 74.34 188.884 74.096 189.028 73.864C189.18 73.64 189.288 73.388 189.352 73.108C189.192 73.068 189.072 72.992 188.992 72.88C188.92 72.768 188.884 72.632 188.884 72.472V72.304C188.884 72.096 188.94 71.928 189.052 71.8C189.172 71.664 189.36 71.596 189.616 71.596ZM195.154 73.144C194.674 73.144 194.254 73.084 193.894 72.964C193.534 72.836 193.23 72.664 192.982 72.448C192.742 72.232 192.558 71.976 192.43 71.68C192.31 71.384 192.25 71.064 192.25 70.72C192.25 70.144 192.406 69.688 192.718 69.352C193.03 69.016 193.438 68.78 193.942 68.644V68.548C193.502 68.396 193.15 68.152 192.886 67.816C192.63 67.472 192.502 67.06 192.502 66.58C192.502 65.94 192.734 65.432 193.198 65.056C193.662 64.672 194.314 64.48 195.154 64.48C195.994 64.48 196.646 64.672 197.11 65.056C197.574 65.432 197.806 65.94 197.806 66.58C197.806 67.06 197.674 67.472 197.41 67.816C197.154 68.152 196.806 68.396 196.366 68.548V68.644C196.87 68.78 197.278 69.016 197.59 69.352C197.902 69.688 198.058 70.144 198.058 70.72C198.058 71.064 197.994 71.384 197.866 71.68C197.746 71.976 197.562 72.232 197.314 72.448C197.074 72.664 196.774 72.836 196.414 72.964C196.054 73.084 195.634 73.144 195.154 73.144ZM195.154 72.268C195.738 72.268 196.19 72.14 196.51 71.884C196.83 71.62 196.99 71.248 196.99 70.768V70.516C196.99 70.036 196.83 69.668 196.51 69.412C196.19 69.148 195.738 69.016 195.154 69.016C194.57 69.016 194.118 69.148 193.798 69.412C193.478 69.668 193.318 70.036 193.318 70.516V70.768C193.318 71.248 193.478 71.62 193.798 71.884C194.118 72.14 194.57 72.268 195.154 72.268ZM195.154 68.176C195.682 68.176 196.082 68.064 196.354 67.84C196.626 67.616 196.762 67.288 196.762 66.856V66.676C196.762 66.244 196.626 65.916 196.354 65.692C196.082 65.468 195.682 65.356 195.154 65.356C194.626 65.356 194.226 65.468 193.954 65.692C193.682 65.916 193.546 66.244 193.546 66.676V66.856C193.546 67.288 193.682 67.616 193.954 67.84C194.226 68.064 194.626 68.176 195.154 68.176ZM203.55 73V71.356H199.506V70.468L203.01 64.624H204.51V70.516H205.722V71.356H204.51V73H203.55ZM200.454 70.516H203.55V65.404H203.49L200.454 70.516ZM210.146 73.144C209.146 73.144 208.414 72.764 207.95 72.004C207.494 71.244 207.266 70.18 207.266 68.812C207.266 67.444 207.494 66.38 207.95 65.62C208.414 64.86 209.146 64.48 210.146 64.48C211.146 64.48 211.874 64.86 212.33 65.62C212.794 66.38 213.026 67.444 213.026 68.812C213.026 70.18 212.794 71.244 212.33 72.004C211.874 72.764 211.146 73.144 210.146 73.144ZM210.146 72.268C210.474 72.268 210.754 72.2 210.986 72.064C211.218 71.928 211.406 71.736 211.55 71.488C211.694 71.24 211.798 70.948 211.862 70.612C211.934 70.276 211.97 69.904 211.97 69.496V68.128C211.97 67.72 211.934 67.348 211.862 67.012C211.798 66.676 211.694 66.384 211.55 66.136C211.406 65.888 211.218 65.696 210.986 65.56C210.754 65.424 210.474 65.356 210.146 65.356C209.818 65.356 209.538 65.424 209.306 65.56C209.074 65.696 208.886 65.888 208.742 66.136C208.598 66.384 208.49 66.676 208.418 67.012C208.354 67.348 208.322 67.72 208.322 68.128V69.496C208.322 69.904 208.354 70.276 208.418 70.612C208.49 70.948 208.598 71.24 208.742 71.488C208.886 71.736 209.074 71.928 209.306 72.064C209.538 72.2 209.818 72.268 210.146 72.268Z" fill="white"/>
<circle cx="181" cy="102" r="3.5" fill="white" stroke="#F56B8D"/>
<defs>
<linearGradient id="paint0_linear_5_5371" x1="154.373" y1="56.5254" x2="154.373" y2="340.5" gradientUnits="userSpaceOnUse">
<stop stop-color="#75C696"/>
<stop offset="1" stop-color="#75C696" stop-opacity="0"/>
</linearGradient>
<clipPath id="clip0_5_5371">
<rect width="470" height="283.975" fill="white" transform="matrix(-1 0 0 1 470 56.5254)"/>
</clipPath>
<clipPath id="clip1_5_5371">
<rect width="470" height="284.109" fill="white" transform="matrix(-1 0 0 1 470 56.3906)"/>
</clipPath>
</defs>
</svg>
